<svg xmlns="http://www.w3.org/2000/svg" viewBox="0 0 1200 800" role="img" aria-label="Deriv Champions preview">
  <defs>
    <linearGradient id="hero" x1="0" y1="0" x2="1" y2="1">
      <stop offset="0%" stop-color="#0F172A" />
      <stop offset="100%" stop-color="#111827" />
    </linearGradient>
  </defs>
  <rect width="1200" height="800" fill="url(#hero)" />
  <rect x="120" y="120" width="960" height="560" rx="48" fill="#111827" stroke="#F0B429" stroke-width="6" />
  <rect x="180" y="200" width="420" height="120" rx="24" fill="#171E2E" />
  <rect x="620" y="200" width="320" height="320" rx="32" fill="#1F2937" />
  <circle cx="780" cy="340" r="110" fill="#F0B429" opacity="0.3" />
  <rect x="210" y="240" width="220" height="32" rx="16" fill="#F0B429" />
  <rect x="210" y="300" width="320" height="20" rx="10" fill="#E2B94B" opacity="0.75" />
  <rect x="210" y="340" width="360" height="20" rx="10" fill="#9CA3AF" opacity="0.8" />
  <rect x="210" y="380" width="320" height="20" rx="10" fill="#9CA3AF" opacity="0.8" />
  <rect x="210" y="420" width="240" height="20" rx="10" fill="#9CA3AF" opacity="0.8" />
  <rect x="620" y="260" width="280" height="40" rx="20" fill="#F0B429" />
  <rect x="620" y="330" width="180" height="20" rx="10" fill="#EDE9FE" opacity="0.9" />
  <rect x="620" y="370" width="220" height="20" rx="10" fill="#EDE9FE" opacity="0.9" />
  <rect x="620" y="410" width="160" height="20" rx="10" fill="#EDE9FE" opacity="0.9" />
  <text x="600" y="720" text-anchor="middle" font-family="Inter, Arial, sans-serif" font-size="56" font-weight="700" fill="#F0B429">DERIV CHAMPIONS</text>
  <text x="600" y="768" text-anchor="middle" font-family="Inter, Arial, sans-serif" font-size="24" fill="#D1D5DB">Market education for traders who win</text>
</svg>
