<svg xmlns="http://www.w3.org/2000/svg" viewBox="0 0 1200 800" role="img" aria-label="Lunar CMS preview">
  <defs>
    <linearGradient id="bg" x1="0" y1="0" x2="1" y2="1">
      <stop offset="0%" stop-color="#111827" />
      <stop offset="100%" stop-color="#0F0F1A" />
    </linearGradient>
    <linearGradient id="panel" x1="0" y1="0" x2="0" y2="1">
      <stop offset="0%" stop-color="#1F2937" />
      <stop offset="100%" stop-color="#111827" />
    </linearGradient>
  </defs>
  <rect width="1200" height="800" fill="url(#bg)" />
  <rect x="120" y="120" width="960" height="560" rx="48" fill="url(#panel)" stroke="#4F46E5" stroke-width="6" />
  <rect x="180" y="180" width="260" height="160" rx="28" fill="#818CF8" opacity="0.9" />
  <rect x="180" y="360" width="260" height="40" rx="20" fill="#E0E7FF" opacity="0.75" />
  <rect x="180" y="420" width="260" height="170" rx="28" fill="#1F2937" />
  <rect x="520" y="180" width="420" height="38" rx="19" fill="#D1FAE5" opacity="0.95" />
  <rect x="520" y="240" width="360" height="28" rx="14" fill="#A5B4FC" opacity="0.95" />
  <rect x="520" y="300" width="440" height="220" rx="32" fill="#2B2F4A" />
  <rect x="560" y="340" width="320" height="36" rx="18" fill="#E0E7FF" />
  <rect x="560" y="395" width="260" height="26" rx="13" fill="#A5B4FC" />
  <rect x="560" y="445" width="300" height="26" rx="13" fill="#A5B4FC" />
  <rect x="560" y="495" width="180" height="26" rx="13" fill="#818CF8" />
  <circle cx="340" cy="560" r="44" fill="#8B5CF6" opacity="0.9" />
  <circle cx="650" cy="560" r="26" fill="#E0E7FF" />
  <rect x="210" y="180" width="120" height="28" rx="14" fill="#E0E7FF" />
  <text x="600" y="700" text-anchor="middle" font-family="Inter, Arial, sans-serif" font-size="56" font-weight="700" fill="#E0E7FF">LUNAR CMS</text>
  <text x="600" y="760" text-anchor="middle" font-family="Inter, Arial, sans-serif" font-size="24" fill="#A5B4FC">Headless content management built for teams</text>
</svg>
